<svg xmlns="http://www.w3.org/2000/svg" viewBox="0 0 800.86 791.15"><defs><style>.cls-1{fill:#333;}.cls-1,.cls-2,.cls-3{stroke:#000;stroke-linecap:round;stroke-linejoin:round;stroke-width:25.8px;}.cls-2{fill:#666;}.cls-3{fill:#4d4d4d;}.cls-4{fill:#fff;}.cls-5{fill:#008e58;}.cls-6{fill:#00472c;}.cls-7{fill:#42bfe4;}</style></defs><g id="Camada_2" data-name="Camada 2"><g id="Camada_2-2" data-name="Camada 2"><ellipse class="cls-1" cx="400.42" cy="382.62" rx="333.93" ry="281.91"/><path class="cls-2" d="M108.56,562.07,70.9,553.6c-12.81-2.88-22.15-13.24-23.16-25.69L33.23,348.85c-1-12.45,6.54-24.17,18.71-29.08l35.81-14.42c19.21-7.74,40.61,4.51,42.21,24.14l16.36,202C147.91,551.08,128.76,566.61,108.56,562.07Z"/><path class="cls-3" d="M36.11,501.09l-12-6.17A5.7,5.7,0,0,1,21,490.35L12.92,390.23a5.68,5.68,0,0,1,2.34-5l10.8-8c3.83-2.84,9.42-.54,9.79,4l9.27,114.3C45.49,500.1,40.34,503.27,36.11,501.09Z"/><path class="cls-2" d="M692.3,562.07,730,553.6c12.81-2.88,22.15-13.24,23.16-25.69l14.51-179.06c1-12.45-6.54-24.17-18.72-29.08l-35.8-14.42c-19.21-7.74-40.62,4.51-42.21,24.14l-16.37,202C652.94,551.08,672.1,566.61,692.3,562.07Z"/><path class="cls-3" d="M764.75,501.09l12-6.17a5.67,5.67,0,0,0,3.11-4.57l8.12-100.12a5.7,5.7,0,0,0-2.34-5l-10.81-8c-3.83-2.84-9.42-.54-9.79,4l-9.26,114.3C755.37,500.1,760.52,503.27,764.75,501.09Z"/><path class="cls-4" d="M400.43,778.25a12.73,12.73,0,0,1-4.35-.76c-84.56-30.3-132.29-72-157.44-101.58a231.68,231.68,0,0,1-17-22.65c-.71,3-1.46,5.71-2.25,8.07a12.89,12.89,0,0,1-20.33,6c-46.93-37.82-63.32-93.12-68.9-122.35-3.82,2.11-7.65,4.16-10.68,5.67a12.89,12.89,0,0,1-18.59-10.14c-7.21-66.06,2.62-118.59,10.95-148.55-5.13,2.07-9.68,3.95-12.13,5a12.8,12.8,0,0,1-5.23,1.11,12.9,12.9,0,0,1-12.09-17.43c8.81-23.48,32-54.18,32.95-55.48a12.75,12.75,0,0,1,2.33-2.37l118.28-92.53a12.88,12.88,0,0,1,7.95-2.74L587,233a12.87,12.87,0,0,1,8.85,3.71l88.47,87.09a13.69,13.69,0,0,1,1.23,1.4c1,1.3,24.14,32,32.94,55.48A12.9,12.9,0,0,1,701.17,397c-2.45-1.09-7-3-12.13-5,8.33,30,18.16,82.49,11,148.55a12.88,12.88,0,0,1-18.59,10.14c-3-1.51-6.86-3.57-10.69-5.67-5.57,29.23-22,84.53-68.89,122.35a12.9,12.9,0,0,1-20.34-6c-.78-2.36-1.53-5.1-2.24-8.07a231.68,231.68,0,0,1-17,22.65c-25.15,29.62-72.89,71.28-157.44,101.58A12.77,12.77,0,0,1,400.43,778.25Z"/><path d="M243.88,240.42l342.91,5.44L675.26,333s22.9,30.23,31.14,52.22c-8.24-3.66-38.47-15.57-38.47-15.57s30.23,68.7,19.24,169.47c-9.16-4.58-26.57-14.65-26.57-14.65s-5.5,83.36-66.87,132.83c-4.59-13.74-8.25-44.89-8.25-44.89s-26.57,96.19-185,153c-158.49-56.8-185-153-185-153s-3.67,31.15-8.25,44.89c-61.38-49.47-66.87-132.83-66.87-132.83s-17.41,10.07-26.57,14.65c-11-100.77,19.24-169.47,19.24-169.47s-30.23,11.91-38.48,15.57c8.25-22,31.15-52.22,31.15-52.22l118.28-92.53m0-25.81a25.82,25.82,0,0,0-15.9,5.48L109.7,312.63a26.2,26.2,0,0,0-4.67,4.74c-2.57,3.4-25.44,33.95-34.74,58.74A25.81,25.81,0,0,0,94,411,420.48,420.48,0,0,0,88,541.87a25.79,25.79,0,0,0,33.19,21.88c8.53,32.59,27.58,79.63,69.71,113.59a25.82,25.82,0,0,0,32.27.1q2.65,3.36,5.59,6.82c16.84,19.83,37.45,38.16,61.25,54.5,29.23,20.06,63.44,37.18,101.67,50.88a25.85,25.85,0,0,0,17.41,0c38.24-13.7,72.45-30.82,101.68-50.88,23.8-16.34,44.41-34.67,61.24-54.5q2.94-3.46,5.6-6.82a25.83,25.83,0,0,0,32.27-.1c42.13-34,61.18-81,69.7-113.59a25.8,25.8,0,0,0,33.2-21.88,420.13,420.13,0,0,0-6-130.9,25.81,25.81,0,0,0,23.7-34.86c-9.3-24.79-32.17-55.34-34.74-58.74a27.43,27.43,0,0,0-2.47-2.81l-88.47-87.09a25.84,25.84,0,0,0-17.69-7.41l-342.91-5.44Z"/><path d="M359.4,438.9c-23.39,14.82-34.81,51.58-34.47,90-2.21-12.5-3.67-34.92-6.82-32.11-17.25,15.35-38.25,21.93-63,16.54-60.71-14.26-129.84-111.46-73.62-148.77,27-12.16,52.92,9.66,81.59,32.86,18,14.56,37.13,29.68,58.31,37.28C333.31,439,345.92,440.88,359.4,438.9Z"/><path d="M546,513.34c-24.78,5.39-45.77-1.19-63-16.54-3.14-2.81-4.6,19.61-6.81,32.11.34-38.43-11.08-75.19-34.47-90,13.47,2,26.09.08,38.06-4.23C501,427.11,520,412,538,397.43c28.67-23.2,54.57-45,81.59-32.86C675.85,401.88,606.72,499.08,546,513.34Z"/><path class="cls-5" d="M127,317.64A12.88,12.88,0,0,1,114.15,305v-.11c0-1.88-.06-3.72-.06-5.6a283.83,283.83,0,0,1,58-172.84,286.27,286.27,0,0,1,456.62,0,283.86,283.86,0,0,1,58,172.86c0,1.89,0,3.74-.07,5.63A12.93,12.93,0,0,1,666,315c-27.73-21.07-60.67-38.43-97.91-51.63a459.6,459.6,0,0,0-50.22-14.65,530.86,530.86,0,0,0-234.85,0,458.59,458.59,0,0,0-50.23,14.65C195.44,276.64,162.5,294,134.85,315A13,13,0,0,1,127,317.64Z"/><path d="M400.44,25.8A272.6,272.6,0,0,1,478.17,37C591.32,70.51,673.86,175.24,673.86,299.26c0,1.84,0,3.64-.07,5.48-28.44-21.61-62.8-39.83-101.4-53.51a470.82,470.82,0,0,0-51.61-15.06,543.94,543.94,0,0,0-240.69,0,474,474,0,0,0-51.64,15.06c-38.6,13.71-73,31.9-101.4,53.51,0-1.84-.07-3.64-.07-5.48,0-124,82.54-228.72,195.69-262.2A272.68,272.68,0,0,1,400.44,25.8m0-25.8A299,299,0,0,0,101.18,299.26c0,2,0,4,.06,5.84v.09a25.79,25.79,0,0,0,41.4,20.1c26.59-20.2,58.37-36.93,94.44-49.74a448,448,0,0,1,48.85-14.25,518.12,518.12,0,0,1,229,0,448.89,448.89,0,0,1,48.77,14.23l.06,0c36,12.75,67.75,29.48,94.42,49.74a25.8,25.8,0,0,0,41.4-20.1v-.09c0-1.87.06-3.81.06-5.84A299,299,0,0,0,400.44,0Z"/><path class="cls-6" d="M572.68,262.92q0,7.6-.29,15.07a470.83,470.83,0,0,0-51.61-15.07,543.94,543.94,0,0,0-240.69,0A474,474,0,0,0,228.45,278q-.28-7.46-.29-15.07c0-79,48.84-150,94.51-199.1a274.53,274.53,0,0,1,155.5,0C523.84,112.94,572.68,183.93,572.68,262.92Z"/><path class="cls-7" d="M521.52,249.44a125,125,0,0,1-.74,13.48,543.94,543.94,0,0,0-240.69,0,125,125,0,0,1-.74-13.48,121.09,121.09,0,1,1,242.17,0Z"/><path d="M514.58,209a546.21,546.21,0,0,0-228.29,0,121.13,121.13,0,0,1,228.29,0Z"/><path class="cls-5" d="M313.89,449.68a35.15,35.15,0,1,1-58.32-37.28C273.61,427,292.7,442.08,313.89,449.68Z"/><path class="cls-5" d="M554.81,436.17a35.12,35.12,0,0,1-67.56,13.47c21.18-7.56,40.27-22.68,58.27-37.24A34.92,34.92,0,0,1,554.81,436.17Z"/><path d="M446.61,552.29,413,585.86a17.84,17.84,0,0,1-25.22,0l-33.57-33.57C328.75,526.79,472.11,526.79,446.61,552.29Z"/><path d="M431.57,659.45l-39.1,2.85a4.11,4.11,0,0,1-1.53-8c34.45-10.86,60.45-25.77,75.51-45.9a4.13,4.13,0,0,1,7.47,2.09h0A45.79,45.79,0,0,1,431.57,659.45Z"/></g></g></svg>