<svg xmlns="http://www.w3.org/2000/svg" viewBox="0 0 832.1 1057.86"><defs><style>.cls-1{fill:#662d91;}.cls-2{fill:#42bfe4;}.cls-3{fill:#333;}.cls-3,.cls-4,.cls-5{stroke:#000;stroke-linecap:round;stroke-linejoin:round;stroke-width:25.8px;}.cls-4{fill:#666;}.cls-5{fill:#4d4d4d;}.cls-6{fill:#fff;}.cls-7{fill:#008e58;}.cls-8{fill:#00472c;}</style></defs><g id="Camada_2" data-name="Camada 2"><g id="Camada_2-2" data-name="Camada 2"><rect x="389.53" y="839.58" width="48.51" height="58.61"/><path class="cls-1" d="M190.31,996.9l7.24-51.68H125.86l-7.24,51.68H18L56.39,724.38H329.22L290.87,996.9ZM211.63,845l2.91-20.32H142.87L140,845Z"/><path d="M311.18,740.06,277.24,981.22h-68.9l7.24-51.68H112.22L105,981.22H36.08L70,740.06H311.18M232.63,809H129.27l-7.4,51.68H225.22L232.63,809M347.26,708.7H42.76l-3.8,27L5,976.85l-5,35.73H132.26l3.78-27,3.45-24.67h40l-2.24,16-5,35.71H304.5l3.8-27,33.93-241.16,5-35.73Z"/><path class="cls-1" d="M270.09,1042.18l40.49-288h243L519.43,996.9H368.49l-6.34,45.28Zm170.17-137L448.65,846h-58.9l-8.39,59.21Z"/><path d="M535.54,769.89,505.8,981.22H354.85l-6.34,45.29H288.13l36.08-256.62H535.54m-68.83,60.38H376.14l-12.83,90.57h90.57l12.83-90.57m104.91-91.74H297l-3.79,27-36.08,256.62-5,35.72H375.79l3.78-27,2.56-18.27H533.06l3.8-27,29.73-211.33,5-35.73ZM403.37,861.63h27.22l-3.94,27.85H399.42l3.95-27.85Z"/><polygon class="cls-1" points="706.12 996.9 632.04 910.77 615.5 910.77 603.44 996.9 502.86 996.9 541.21 724.38 641.8 724.38 629.57 810.51 642.99 810.51 741.35 724.38 814.05 724.38 803.82 796.76 729.14 862.19 785.47 927.63 775.68 996.9 706.12 996.9"/><path d="M796,740.06l-6.89,48.75-82,71.83L769,932.47l-6.89,48.75H713.31l-74.07-86.13H601.86L589.8,981.22H520.9l33.93-241.16h68.91l-12.23,86.13h37.38l98.36-86.13H796m36.1-31.36H735.46l-8.87,7.76-77.46,67.83,5.66-39.83,5.07-35.76H527.58l-3.8,27L489.85,976.85l-5,35.73H617.08l3.78-27,7.68-54.84,61,70.94,9.38,10.91H789.3l3.81-27L800,936.86l2-14.08L792.72,912l-41.56-48.27,58.61-51.35,8.76-7.67,1.63-11.53,6.89-48.75,5.05-35.74Z"/><path class="cls-2" d="M69,755H310.15L276.21,996.14h-68.9l7.23-51.68H111.19L104,996.14H35.05Zm59.26,68.91-7.41,51.67H224.19l7.41-51.67Z"/><path class="cls-2" d="M504.77,996.14H353.82l-6.34,45.28H287.1L323.18,784.8H534.51Zm-51.93-60.38,12.83-90.58H375.1l-12.83,90.58Z"/><path class="cls-2" d="M600.83,910l-12.06,86.13H519.86L553.8,755h68.9L610.47,841.1h37.38L746.21,755H795l-6.89,48.75-82,71.83,61.84,71.84L761,996.14H712.28L638.21,910Z"/><ellipse class="cls-3" cx="420.24" cy="382.62" rx="333.93" ry="281.91"/><path class="cls-4" d="M128.38,562.07,90.72,553.6c-12.81-2.88-22.15-13.24-23.15-25.69L53.05,348.85c-1-12.45,6.54-24.17,18.72-29.08l35.8-14.42c19.21-7.74,40.62,4.51,42.21,24.14l16.37,202C167.74,551.08,148.58,566.61,128.38,562.07Z"/><path class="cls-5" d="M55.93,501.09l-12-6.17a5.68,5.68,0,0,1-3.12-4.57L32.74,390.23a5.73,5.73,0,0,1,2.34-5l10.81-8c3.83-2.84,9.42-.54,9.79,4l9.26,114.3C65.31,500.1,60.17,503.27,55.93,501.09Z"/><path class="cls-4" d="M712.12,562.07l37.66-8.47c12.81-2.88,22.15-13.24,23.16-25.69l14.51-179.06c1-12.45-6.54-24.17-18.71-29.08l-35.81-14.42c-19.2-7.74-40.61,4.51-42.2,24.14l-16.37,202C672.77,551.08,691.92,566.61,712.12,562.07Z"/><path class="cls-5" d="M784.58,501.09l11.95-6.17a5.7,5.7,0,0,0,3.12-4.57l8.11-100.12a5.68,5.68,0,0,0-2.34-5l-10.8-8c-3.83-2.84-9.42-.54-9.79,4l-9.27,114.3C775.19,500.1,780.34,503.27,784.58,501.09Z"/><path class="cls-6" d="M420.25,778.25a12.77,12.77,0,0,1-4.35-.76c-84.55-30.3-132.29-72-157.44-101.58a233.3,233.3,0,0,1-17-22.65c-.71,3-1.46,5.71-2.24,8.07a12.9,12.9,0,0,1-20.34,6c-46.93-37.82-63.32-93.12-68.89-122.35-3.83,2.11-7.66,4.16-10.69,5.67a12.9,12.9,0,0,1-18.59-10.14c-7.21-66.06,2.63-118.59,10.95-148.55-5.12,2.07-9.68,3.95-12.12,5a12.9,12.9,0,0,1-17.32-16.32c8.8-23.48,32-54.18,32.94-55.48a13.07,13.07,0,0,1,2.33-2.37l118.28-92.53a12.88,12.88,0,0,1,7.95-2.74L606.82,233a12.87,12.87,0,0,1,8.84,3.71l88.47,87.09a11.63,11.63,0,0,1,1.23,1.4c1,1.3,24.14,32,32.95,55.48A12.9,12.9,0,0,1,721,397c-2.45-1.09-7-3-12.12-5,8.32,30,18.15,82.49,11,148.55a12.89,12.89,0,0,1-18.6,10.14c-3-1.51-6.86-3.57-10.68-5.67-5.58,29.23-22,84.53-68.89,122.35a12.9,12.9,0,0,1-20.34-6c-.79-2.36-1.54-5.1-2.25-8.07a231.68,231.68,0,0,1-17,22.65c-25.15,29.62-72.88,71.28-157.43,101.58A12.79,12.79,0,0,1,420.25,778.25Z"/><path d="M263.7,240.42l342.91,5.44L695.08,333s22.9,30.23,31.15,52.22c-8.25-3.66-38.48-15.57-38.48-15.57S718,438.3,707,539.07c-9.16-4.58-26.57-14.65-26.57-14.65s-5.49,83.36-66.87,132.83c-4.58-13.74-8.25-44.89-8.25-44.89s-26.56,96.19-185,153c-158.48-56.8-185-153-185-153s-3.66,31.15-8.24,44.89c-61.38-49.47-66.88-132.83-66.88-132.83s-17.4,10.07-26.57,14.65c-11-100.77,19.24-169.47,19.24-169.47s-30.23,11.91-38.47,15.57c8.24-22,31.14-52.22,31.14-52.22L263.7,240.42m0-25.81a25.84,25.84,0,0,0-15.9,5.48L129.52,312.63a25.82,25.82,0,0,0-4.66,4.74c-2.58,3.4-25.45,33.95-34.74,58.74A25.8,25.8,0,0,0,113.81,411a420.13,420.13,0,0,0-6,130.9,25.8,25.8,0,0,0,33.2,21.88c8.52,32.59,27.57,79.63,69.7,113.59a25.82,25.82,0,0,0,32.27.1q2.66,3.36,5.6,6.82c16.83,19.83,37.44,38.16,61.25,54.5,29.22,20.06,63.43,37.18,101.67,50.88a25.85,25.85,0,0,0,17.41,0c38.23-13.7,72.44-30.82,101.67-50.88,23.8-16.34,44.41-34.67,61.25-54.5q2.94-3.46,5.6-6.82a25.81,25.81,0,0,0,32.26-.1c42.13-34,61.18-81,69.71-113.59a25.8,25.8,0,0,0,33.19-21.88A420.18,420.18,0,0,0,726.7,411a25.81,25.81,0,0,0,23.69-34.86c-9.3-24.79-32.16-55.34-34.74-58.74a26.28,26.28,0,0,0-2.47-2.81l-88.47-87.09A25.82,25.82,0,0,0,607,220.06l-342.91-5.44Z"/><path d="M379.22,438.9c-23.39,14.82-34.81,51.58-34.47,90-2.21-12.5-3.67-34.92-6.81-32.11-17.26,15.35-38.25,21.93-63,16.54-60.71-14.26-129.84-111.46-73.62-148.77,27-12.16,52.92,9.66,81.59,32.86,18,14.56,37.13,29.68,58.31,37.28C353.13,439,365.75,440.88,379.22,438.9Z"/><path d="M565.83,513.34c-24.77,5.39-45.77-1.19-63-16.54-3.15-2.81-4.61,19.61-6.82,32.11.34-38.43-11.07-75.19-34.47-90,13.48,2,26.09.08,38.07-4.23,21.18-7.56,40.27-22.68,58.27-37.24,28.67-23.2,54.57-45,81.59-32.86C695.67,401.88,626.54,499.08,565.83,513.34Z"/><path class="cls-7" d="M146.87,317.64A12.89,12.89,0,0,1,134,305v-.11c0-1.88-.07-3.72-.07-5.6a283.77,283.77,0,0,1,58-172.84,286.26,286.26,0,0,1,456.61,0,283.8,283.8,0,0,1,58,172.86c0,1.89,0,3.74-.06,5.63A12.93,12.93,0,0,1,685.81,315c-27.72-21.07-60.66-38.43-97.91-51.63a459,459,0,0,0-50.22-14.65,530.81,530.81,0,0,0-234.84,0,458,458,0,0,0-50.23,14.65C215.27,276.64,182.32,294,154.67,315A12.9,12.9,0,0,1,146.87,317.64Z"/><path d="M420.26,25.8A272.54,272.54,0,0,1,498,37C611.14,70.51,693.68,175.24,693.68,299.26c0,1.84,0,3.64-.06,5.48-28.45-21.61-62.8-39.83-101.41-53.51a470.82,470.82,0,0,0-51.61-15.06,543.9,543.9,0,0,0-240.68,0,473.3,473.3,0,0,0-51.64,15.06c-38.61,13.71-73,31.9-101.41,53.51,0-1.84-.07-3.64-.07-5.48,0-124,82.54-228.72,195.69-262.2A272.73,272.73,0,0,1,420.26,25.8m0-25.8A299,299,0,0,0,121,299.26c0,2,0,4,.07,5.84v.09a25.8,25.8,0,0,0,41.41,20.1c26.59-20.2,58.36-36.93,94.43-49.74a448.61,448.61,0,0,1,48.85-14.25,518.12,518.12,0,0,1,229,0,449.73,449.73,0,0,1,48.78,14.23l.05,0c36,12.75,67.75,29.48,94.42,49.74a25.8,25.8,0,0,0,41.41-20.1v-.09c0-1.87.07-3.81.07-5.84A299,299,0,0,0,420.26,0Z"/><path class="cls-8" d="M592.5,262.92q0,7.6-.29,15.07a470.83,470.83,0,0,0-51.61-15.07,543.9,543.9,0,0,0-240.68,0A473.31,473.31,0,0,0,248.28,278q-.3-7.46-.29-15.07c0-79,48.83-150,94.5-199.1a274.53,274.53,0,0,1,155.5,0C543.67,112.94,592.5,183.93,592.5,262.92Z"/><path class="cls-2" d="M541.34,249.44a125,125,0,0,1-.74,13.48,543.9,543.9,0,0,0-240.68,0,122.48,122.48,0,0,1-.74-13.48,121.08,121.08,0,1,1,242.16,0Z"/><path d="M534.41,209a546.25,546.25,0,0,0-228.3,0,121.13,121.13,0,0,1,228.3,0Z"/><path class="cls-7" d="M333.71,449.68A35.14,35.14,0,1,1,275.4,412.4C293.44,427,312.52,442.08,333.71,449.68Z"/><path class="cls-7" d="M574.63,436.17a35.12,35.12,0,0,1-67.56,13.47c21.19-7.56,40.27-22.68,58.28-37.24A35,35,0,0,1,574.63,436.17Z"/><path d="M466.43,552.29l-33.57,33.57a17.84,17.84,0,0,1-25.22,0l-33.57-33.57C348.57,526.79,491.93,526.79,466.43,552.29Z"/><path d="M451.39,659.45,412.3,662.3a4.11,4.11,0,0,1-1.53-8c34.45-10.86,60.45-25.77,75.51-45.9a4.12,4.12,0,0,1,7.46,2.09h0A45.77,45.77,0,0,1,451.39,659.45Z"/></g></g></svg>