<svg xmlns="http://www.w3.org/2000/svg" viewBox="0 0 832.1 349.17"><defs><style>.cls-1{fill:#662d91;}.cls-2{fill:#42bfe4;}</style></defs><g id="Camada_2" data-name="Camada 2"><g id="Camada_2-2" data-name="Camada 2"><rect x="389.53" y="130.89" width="48.51" height="58.61"/><path class="cls-1" d="M190.31,288.2l7.24-51.68H125.86l-7.24,51.68H18L56.39,15.68H329.22L290.87,288.2Zm21.32-151.94,2.91-20.32H142.87L140,136.26Z"/><path d="M311.18,31.36,277.24,272.52h-68.9l7.24-51.67H112.22L105,272.52H36.08L70,31.36H311.18m-78.55,68.9H129.27l-7.4,51.68H225.22l7.41-51.68M347.26,0H42.76L39,27,5,268.15,0,303.88H132.26l3.78-27,3.45-24.67h40l-2.24,16-5,35.7H304.5l3.8-27L342.23,35.73l5-35.73Z"/><path class="cls-1" d="M270.09,333.49l40.49-288h243L519.43,288.2H368.49l-6.34,45.29Zm170.17-137,8.39-59.21h-58.9l-8.39,59.21Z"/><path d="M535.54,61.19,505.8,272.52H354.85l-6.34,45.29H288.13L324.21,61.19H535.54m-68.83,60.38H376.14l-12.83,90.57h90.57l12.83-90.57M571.62,29.83H297l-3.79,27L257.08,313.44l-5,35.73H375.79l3.78-27,2.56-18.28H533.06l3.8-27L566.59,65.56l5-35.73ZM403.37,152.93h27.22l-3.94,27.85H399.42l3.95-27.85Z"/><polygon class="cls-1" points="706.12 288.2 632.04 202.07 615.5 202.07 603.44 288.2 502.86 288.2 541.21 15.68 641.8 15.68 629.57 101.81 642.99 101.81 741.35 15.68 814.05 15.68 803.82 88.07 729.14 153.49 785.47 218.93 775.68 288.2 706.12 288.2"/><path d="M796,31.36l-6.89,48.75-82,71.83L769,223.77l-6.89,48.75H713.31l-74.07-86.13H601.86L589.8,272.52H520.9L554.83,31.36h68.91l-12.23,86.13h37.38l98.36-86.13H796M832.1,0H735.46l-8.87,7.77L649.13,75.59l5.66-39.82L659.86,0H527.58l-3.8,27L489.85,268.15l-5,35.73H617.08l3.78-27L628.54,222l61,70.93,9.38,10.91H789.3l3.81-27L800,228.16l2-14.07-9.27-10.78L751.16,155l58.61-51.34L818.53,96l1.63-11.52,6.89-48.75L832.1,0Z"/><path class="cls-2" d="M69,46.28H310.15L276.21,287.44h-68.9l7.23-51.68H111.19L104,287.44H35.05Zm59.26,68.9-7.41,51.68H224.19l7.41-51.68Z"/><path class="cls-2" d="M504.77,287.44H353.82l-6.34,45.28H287.1L323.18,76.11H534.51Zm-51.93-60.38,12.83-90.57H375.1l-12.83,90.57Z"/><path class="cls-2" d="M600.83,201.31l-12.06,86.13H519.86L553.8,46.28h68.9l-12.23,86.13h37.38l98.36-86.13H795L788.07,95l-82,71.84,61.84,71.83L761,287.44H712.28l-74.07-86.13Z"/></g></g></svg>